<svg width="80" height="80" viewBox="0 0 80 80" fill="none" xmlns="http://www.w3.org/2000/svg">
<rect width="80" height="80" rx="16" fill="#2D6976"/>
<path fill-rule="evenodd" clip-rule="evenodd" d="M49 21C44.0488 21 40 25.1028 40 30.12C40 31.6281 40.5742 33.1659 41.3125 34.87C42.0508 36.5741 42.9824 38.3791 43.9375 40.0475C45.8477 43.3844 47.7812 46.175 47.7812 46.175L49 47.98L50.2188 46.175C50.2188 46.175 52.1523 43.3844 54.0625 40.0475C55.0176 38.3791 55.9492 36.5741 56.6875 34.87C57.4258 33.1659 58 31.6281 58 30.12C58 25.1028 53.9512 21 49 21ZM33.9531 23.945L22 29.1225V58.2875L34.0469 53.015L46.0469 57.575L58 52.3975V39.145C57.0449 41.0034 55.9844 42.7847 55 44.37V50.4025L47.5 53.6325V51.1625L45.2969 47.9325C45.0625 47.5881 44.7871 47.1784 44.5 46.745V53.775L35.5 50.355V27.745L37.1406 28.3625C37.2871 27.3353 37.5508 26.3438 37.9375 25.4175L33.9531 23.945ZM55 30.12C55 26.7475 52.3281 24.04 49 24.04C45.6719 24.04 43 26.7475 43 30.12C43 30.7078 43.3633 32.0972 44.0312 33.635C44.6992 35.1728 45.6426 36.9184 46.5625 38.5275C47.6359 40.401 48.1736 41.2163 48.7516 42.0927C48.8331 42.2162 48.9153 42.3409 49 42.47C49.0847 42.3409 49.1669 42.2162 49.2484 42.0927C49.8264 41.2163 50.3641 40.401 51.4375 38.5275C52.3574 36.9184 53.3008 35.1728 53.9688 33.635C54.6367 32.0972 55 30.7078 55 30.12ZM32.5 27.84V50.4025L25 53.6325V31.1175L32.5 27.84ZM46.75 30.12C46.75 28.8612 47.7578 27.84 49 27.84C50.2422 27.84 51.25 28.8612 51.25 30.12C51.25 31.3787 50.2422 32.4 49 32.4C47.7578 32.4 46.75 31.3787 46.75 30.12Z" fill="white"/>
</svg>
