<svg width="80" height="80" viewBox="0 0 80 80" fill="none" xmlns="http://www.w3.org/2000/svg">
<rect width="80" height="80" rx="16" fill="#FE5F55"/>
<path fill-rule="evenodd" clip-rule="evenodd" d="M43.5004 18V21C52.5979 21 60.0004 28.4025 60.0004 37.5H63.0004C63.0004 26.748 54.2524 18 43.5004 18ZM27.976 22.5088C27.1886 22.5088 26.402 22.7657 25.7611 23.2822L25.6879 23.3408L21.013 28.1637C19.4992 29.5103 19.0879 31.6033 19.7494 33.3662C21.0134 37.0111 24.2356 44.0594 30.5922 50.4082C36.9623 56.7861 44.0846 59.8701 47.6078 61.2451L47.6429 61.2568L47.6781 61.2686C49.4997 61.8791 51.4675 61.4437 52.8783 60.2373L52.9222 60.1992L57.6097 55.5117C58.854 54.2675 58.854 52.0861 57.6097 50.8418L51.4633 44.6895C50.2155 43.4417 48.0353 43.4417 46.7875 44.6895L43.8109 47.666C42.7453 47.1574 40.1236 45.838 37.6322 43.4619C35.1732 41.117 33.9179 38.4066 33.4633 37.3594L36.4633 34.3594C37.7578 33.0648 37.8517 30.8576 36.4114 29.6361L30.2611 23.3408L30.1908 23.2822C29.5499 22.7657 28.7633 22.5088 27.976 22.5088ZM43.5004 24C50.9449 24 57.0004 30.057 57.0004 37.5H54.0004C54.0004 31.71 49.2889 27 43.5004 27V24ZM27.9789 25.5C28.0858 25.4998 28.1912 25.5401 28.2953 25.6201L34.3949 31.8662L34.4681 31.9248C34.4644 31.9219 34.465 31.9262 34.4663 31.9366C34.4711 31.9746 34.4863 32.0941 34.3422 32.2383L29.9066 36.6738L30.2494 37.5791C30.2494 37.5791 31.9424 42.1821 35.5609 45.6328C39.1193 49.0265 43.5062 50.8799 43.5062 50.8799L44.4408 51.2783L48.9086 46.8105C48.9402 46.7789 48.9667 46.7513 48.9894 46.7276C49.0574 46.6568 49.0914 46.6214 49.1254 46.6214C49.1594 46.6214 49.1933 46.6568 49.2613 46.7276C49.284 46.7513 49.3106 46.7789 49.3422 46.8105L55.4887 52.9629C55.5255 52.9997 55.557 53.0295 55.5833 53.0543C55.6481 53.1155 55.6805 53.1462 55.6805 53.1768C55.6805 53.2074 55.6481 53.238 55.5833 53.2992C55.557 53.324 55.5255 53.3538 55.4887 53.3906L50.9183 57.9609C50.2224 58.5525 49.5034 58.7075 48.639 58.4209C45.2458 57.094 38.6093 54.1903 32.7133 48.2871C26.7764 42.3574 23.7 35.6199 22.5707 32.3555L22.5648 32.3379L22.556 32.3174C22.3289 31.7167 22.4949 30.8456 23.0277 30.3867L23.0775 30.3428L27.6596 25.6201C27.7637 25.5408 27.872 25.5002 27.9789 25.5ZM43.5004 33V30C47.6359 30 51.0004 33.3645 51.0004 37.5H48.0004C48.0004 35.019 45.9814 33 43.5004 33Z" fill="white"/>
</svg>
